<?xml version="1.0" encoding="UTF-8"?>
<svg id="Capa_5" data-name="Capa 5" xmlns="http://www.w3.org/2000/svg" viewBox="0 0 696.32 252.6">
  <defs>
    <style>
      .cls-1 {
        fill: #fff;
      }
    </style>
  </defs>
  <path class="cls-1" d="m372.47,177.41l-4.45-2.27c5.21-10.2,9.08-21.1,11.51-32.4.17-.78,1.87-10.85,1.87-10.85h0c.8-.39,1.73-.79,2.79-1.14.89-.29,1.72-.5,2.47-.65h0c-1.98,12.18-2.24,13.69-2.24,13.69-1.09,6.47-3.95,16.84-11.95,33.63Z"/>
  <path class="cls-1" d="m390.78,173.16l-4.82-1.33c2.14-7.79,3.72-15.79,4.68-23.77.84-6.98,1.16-18.61,1.16-18.61h0c1.14-.06,2.42-.03,3.8.14.41.05.81.11,1.2.18h0c-.95,16.39-1.19,18.89-1.19,18.89-.56,5.87-1.8,14.26-4.82,24.5Z"/>
  <path class="cls-1" d="m361.98,213.59c-5.99,0-12.26-2.95-14.61-7.51-4.49-8.7,4.6-22.15,21.63-31.97l2.16-1.25,3.57,6.19c3.91,8.29,4.56,17.06,1.79,24.04-1.83,4.6-4.98,7.97-8.86,9.49-1.76.69-3.71,1.01-5.68,1.01Zm7.37-33.86c-14.06,8.75-20.09,19.12-17.54,24.06,1.93,3.74,9.4,5.94,14.03,4.14,2.57-1.01,4.72-3.38,6.03-6.68,2.26-5.68,1.67-12.95-1.62-19.96l-.9-1.55Z"/>
  <path class="cls-1" d="m380.14,209.79c-2.97,0-6.09-.71-8.81-2.1l2.27-4.46c3.3,1.68,7.47,2.04,10.38.91,2.57-1.01,4.71-3.38,6.02-6.68,2.26-5.68,1.66-12.94-1.62-19.96l-.9-1.56c-4.62,2.87-8.64,6.1-11.74,9.42l-3.66-3.41c3.9-4.19,9.1-8.21,15.04-11.63l2.15-1.24,3.58,6.19c3.91,8.29,4.57,17.05,1.79,24.03-1.83,4.6-4.97,7.97-8.85,9.49-1.7.67-3.65.99-5.66.99Z"/>
  <path class="cls-1" d="m363.9,208.52c-2.44,0-4.89-.69-7.05-2.09-4.68-3.04-7.12-8.77-6.21-14.62l2.96.46c-.71,4.61,1.25,9.29,4.88,11.64,4.01,2.6,9.27,1.99,12.84-1.49l5.86-7.99,1.23,1.02c.99.83,2.61,1.88,4.73,2.18,4.83.7,8.42-2.96,9.09-3.7l2.23,2.01c-.85.94-5.4,5.57-11.74,4.66-1.73-.25-3.42-.9-4.95-1.9l-4.25,5.76c-2.69,2.67-6.15,4.05-9.62,4.05Z"/>
  <rect class="cls-1" x="378.45" y="196.42" width="3" height="10.68" transform="translate(70.88 501) rotate(-72.04)"/>
  <path class="cls-1" d="m431.73,35.36h0s.05-.69.05-.7c.54-7.82,5.03-12.46,5.03-12.46,3.52-3.6,7.87-4.25,12.92-5.01l.59-.09c4.91-.74,9.91-1.39,14.96-1.93-1.64-.54-3.31-1.01-5-1.39-4.21-.95-8.55-1.39-12.86-1.28l-.75.02-.64-.4c-2.94-1.84-18.3-10.75-32.17-5.4l-.31.12c-2.53.97-6.35,2.44-9.17,6.04-2.54,3.24-3.12,6.35-3.86,10.29-.35,1.86-.74,3.98-1.39,6.27,0,0-.25.79-1.6,4.59-1.75-.99-2.67-1.51-2.67-1.51,0,0-.7-.02-2.11-.05,1.37-3.82,1.56-4.4,1.56-4.4.85-2.66,1.07-4.63,1.29-5.82.79-4.24,1.54-8.24,4.83-12.45,3.67-4.69,8.46-6.53,11.32-7.62l.31-.12c15.04-5.8,30.64,2.2,35.98,5.43,4.49-.05,8.97.43,13.34,1.41,5.22,1.18,10.26,3.08,14.96,5.65l7.34,4.01-8.33.68c-8.19.67-16.36,1.61-24.28,2.81l-.6.09c-4.66.7-7.74,1.16-10.09,3.56-2.05,2.1-3.27,5.26-3.62,9.38-.12,1.39.22,4.92.22,4.92h0s-1.82-1.61-5.25-4.65Z"/>
  <path class="cls-1" d="m444.95,13.48c-5.42-1.63-11.01-3.25-16.67-3.52-5.52.11-11.08,2.08-16.12,4.3,0,0-.43-2.61-.43-2.61,1.99.12,4.05.46,5.97,1.13,1.66.62,4.19,1.58,5.86,2.21-1.41,1.12-3.13,2.39-4.27,3.93,0,0-1,1.24-1,1.24-1.41,1.79-1.78,3.96-1.58,6.31,0,0-3.14-1.61-3.14-1.61,4.25-2.79,9.51-4.33,14.48-4.66,4.79-.4,9.34-1.56,13.91-3.17,0,0,.19.35.19.35-3.94,3.02-8.7,5.11-13.57,6.12-5.7,1.01-10.94,3.53-15.79,6.6,0,0-.18-3.36-.18-3.36-.21-3.15.77-6.54,2.97-8.89,1.23-1.31,2.21-2.53,3.8-3.67,0,0,.32,2.82.32,2.82l-2.03-.91c-3.18-1.68-7.94-1.89-11.48-2.34,8.24-3.39,17.58-7.21,26.55-4.72,4.21,1.06,8.37,2.39,12.36,4.08,0,0-.14.37-.14.37h0Z"/>
  <path class="cls-1" d="m350.9,205.85c1.59,1.09,3.17,2.18,4.76,3.28.51.35,1.35.41,1.93.25s1.21-.61,1.49-1.15c.31-.58.46-1.28.25-1.93s-.59-1.11-1.15-1.49c-1.59-1.09-3.17-2.18-4.76-3.28-.51-.35-1.35-.41-1.93-.25s-1.21.61-1.49,1.15c-.31.58-.46,1.28-.25,1.93s.59,1.11,1.15,1.49h0Z"/>
  <path class="cls-1" d="m378.64,205.4h6.2c.64,0,1.31-.28,1.77-.73s.76-1.15.73-1.77c-.06-1.35-1.1-2.5-2.5-2.5h-6.2c-.64,0-1.31.28-1.77.73s-.76,1.15-.73,1.77c.06,1.35,1.1,2.5,2.5,2.5h0Z"/>
  <path class="cls-1" d="m358.87,116.59l-.13-3.27c-.22-5.78.07-11.52.88-17.18.74-5.19,1.77-12.15,5.2-20.25,3.29-7.77,8.59-16.16,8.59-16.16h0c-.09,1.11-.16,2.25-.21,3.43-.1,2.27-.11,4.43-.05,6.48h0s-2.69,5.81-3.64,8.01c-3.3,7.61-4.28,14.6-4.94,19.31-.6,4.22-.89,8.48-.89,12.77,2.21-.85,4.35-1.85,6.4-2.98.22-.12,2.27-1.33,2.27-1.33-.02,1.94-.05,3.88-.07,5.83,1.39-.67-2.78,1.36-4.18,2-1.44.66-3.48,1.52-6.09,2.36-1.04.33-2.08.66-3.12.98Z"/>
  <path class="cls-1" d="m434.16,15.44c0,2.11-1.71,3.81-3.81,3.81s-3.81-1.71-3.81-3.81,1.71-3.81,3.81-3.81,3.81,1.71,3.81,3.81Z"/>
  <path class="cls-1" d="m444.77,9.92c2.7.47,4.63,2.71,5.94,4.99,0,0-1.8.56-1.8.56-2.57.8-4.89,1.94-7.2,3.46v-1.54c.8,1.1,1.52,2.23,2.08,3.49-.66-.26-1.27-.57-1.86-.9-.85-.45-1.67-1.04-2.47-1.57,0,0,.76-1.02.76-1.02,1.91-2.55,5-4.22,8.18-4.52l-.92,1.91c-.67-1.74-1.6-3.27-2.72-4.86h0Z"/>
  <path class="cls-1" d="m0,101.79v-1.34l2.8-1.07c1.87-.71,3.05-1.58,3.54-2.6.49-1.02.73-2.42.73-4.2V22.92c0-1.78-.27-3.2-.8-4.27-.53-1.07-1.69-1.91-3.47-2.54l-2.8-1.07v-1.33h34.03v1.33l-2.4,1.07c-1.69.62-2.85,1.49-3.47,2.6-.62,1.11-.93,2.56-.93,4.34v76.07h20.55c3.29,0,5.72-.8,7.27-2.4,1.56-1.6,3.05-3.91,4.47-6.94l5.2-11.21h1.33l-1.2,23.22H0Z"/>
  <path class="cls-1" d="m91.28,103.79c-5.16,0-9.5-1.47-13.01-4.4-3.52-2.94-5.27-7.16-5.27-12.68,0-4.18,2.14-8.03,6.41-11.54,4.27-3.51,10.99-6.16,20.15-7.94,1.42-.27,3.02-.55,4.8-.87,1.78-.31,3.65-.64,5.61-1v-10.54c0-6.05-.73-10.3-2.2-12.75-1.47-2.45-3.76-3.67-6.87-3.67-2.14,0-3.83.69-5.07,2.07-1.25,1.38-2.05,3.76-2.4,7.14l-.27,1.47c-.18,3.83-1.11,6.63-2.8,8.41-1.69,1.78-3.78,2.67-6.27,2.67-2.31,0-4.23-.71-5.74-2.13-1.51-1.42-2.27-3.34-2.27-5.74,0-3.65,1.27-6.72,3.8-9.21,2.54-2.49,5.89-4.36,10.08-5.61,4.18-1.25,8.72-1.87,13.61-1.87,7.92,0,14.03,1.94,18.35,5.81,4.31,3.87,6.47,10.16,6.47,18.88v29.49c0,4,1.87,6,5.61,6h2.94l1.2,1.07c-1.69,2.14-3.54,3.78-5.54,4.94s-4.83,1.73-8.47,1.73c-3.92,0-7.01-.91-9.27-2.74-2.27-1.82-3.76-4.25-4.47-7.27-2.67,2.85-5.4,5.27-8.21,7.27-2.8,2-6.43,3-10.88,3Zm8.14-8.14c1.78,0,3.45-.42,5-1.27,1.56-.84,3.4-2.16,5.54-3.94v-22.42c-.89.18-1.78.36-2.67.53-.89.18-1.91.36-3.07.53-4.09,1.07-7.36,2.87-9.81,5.4-2.45,2.54-3.67,5.94-3.67,10.21,0,3.65.84,6.38,2.54,8.21,1.69,1.82,3.74,2.74,6.14,2.74Z"/>
  <path class="cls-1" d="m198.97,104.19c-4.89,0-9.88-.6-14.95-1.8-5.07-1.2-9.3-2.78-12.68-4.74l.67-18.15h1.33l4.14,8.67c1.25,2.49,2.58,4.69,4,6.61,1.42,1.91,3.38,3.4,5.87,4.47,1.78.89,3.49,1.49,5.14,1.8,1.65.31,3.49.47,5.54.47,5.42,0,9.72-1.47,12.88-4.4,3.16-2.94,4.74-6.72,4.74-11.34,0-4.36-1.07-7.76-3.2-10.21s-5.56-4.83-10.27-7.14l-5.47-2.4c-7.65-3.38-13.63-7.27-17.95-11.68-4.32-4.4-6.47-10.25-6.47-17.55,0-5.25,1.36-9.79,4.07-13.61,2.71-3.82,6.49-6.76,11.34-8.81,4.85-2.05,10.52-3.07,17.01-3.07,4.71,0,9.18.62,13.41,1.87,4.22,1.25,7.89,2.94,11.01,5.07l-.8,16.01h-1.33l-5.47-10.01c-1.51-3.11-3.03-5.31-4.54-6.61-1.51-1.29-3.25-2.2-5.2-2.74-1.16-.35-2.22-.6-3.2-.73-.98-.13-2.22-.2-3.74-.2-4.54,0-8.36,1.31-11.48,3.94-3.11,2.63-4.67,6.16-4.67,10.61s1.2,8.16,3.6,10.88c2.4,2.71,5.92,5.14,10.54,7.27l6.14,2.67c8.54,3.74,14.68,7.72,18.42,11.94,3.74,4.23,5.6,9.68,5.6,16.35,0,7.83-2.96,14.21-8.87,19.15-5.92,4.94-14.3,7.41-25.15,7.41Z"/>
  <path class="cls-1" d="m273.3,103.79c-6.76,0-12.63-1.4-17.61-4.2-4.98-2.8-8.83-6.78-11.54-11.94-2.71-5.16-4.07-11.21-4.07-18.15s1.45-12.94,4.34-18.01c2.89-5.07,6.85-8.98,11.88-11.74,5.02-2.76,10.7-4.14,17.01-4.14s11.96,1.36,16.95,4.07c4.98,2.71,8.92,6.6,11.81,11.68,2.89,5.07,4.34,11.12,4.34,18.15s-1.36,13.1-4.07,18.22c-2.71,5.12-6.54,9.07-11.47,11.88-4.94,2.8-10.79,4.2-17.55,4.2Zm0-2.67c3.11,0,5.61-.89,7.47-2.67,1.87-1.78,3.22-4.94,4.07-9.47.85-4.54,1.27-10.94,1.27-19.22s-.42-14.81-1.27-19.35c-.85-4.54-2.2-7.69-4.07-9.47-1.87-1.78-4.36-2.67-7.47-2.67s-5.63.89-7.54,2.67c-1.91,1.78-3.29,4.94-4.14,9.47-.85,4.54-1.27,10.99-1.27,19.35s.42,14.68,1.27,19.22c.84,4.54,2.22,7.7,4.14,9.47,1.91,1.78,4.43,2.67,7.54,2.67Z"/>
  <path class="cls-1" d="m312.26,101.79v-1.34l2-.53c1.78-.53,3-1.34,3.67-2.4s1-2.45,1-4.14v-41.77c0-1.96-.33-3.4-1-4.34s-1.89-1.58-3.67-1.94l-2-.53v-1.34l22.95-7.74,1.33,1.33,1.2,11.48v1.07c1.24-2.49,2.87-4.78,4.87-6.87,2-2.09,4.22-3.8,6.67-5.14,2.45-1.34,4.87-2,7.27-2,3.38,0,5.96.94,7.74,2.8,1.78,1.87,2.67,4.23,2.67,7.07,0,3.03-.87,5.36-2.6,7.01-1.73,1.65-3.8,2.47-6.21,2.47-3.74,0-7.03-1.87-9.88-5.61l-.27-.27c-.89-1.25-1.91-1.94-3.07-2.07-1.16-.13-2.22.42-3.2,1.67-.89.8-1.62,1.76-2.2,2.87-.58,1.11-1.13,2.38-1.67,3.8v37.23c0,3.56,1.56,5.78,4.67,6.67l4.27,1.2v1.34h-34.56Z"/>
  <path class="cls-1" d="m397.46,126.45s-8.84-.77-16.28,2.58c-2.15.97-3.77,2.1-4.81,2.9.43-26.77.85-53.54,1.28-80.32,0-1.96-.33-3.42-1-4.4-.67-.98-1.89-1.65-3.67-2l-1.87-.4v-1.34l22.69-7.74,1.34,1.33,1.2,4.14c2.94-1.78,6.21-3.16,9.81-4.14,3.6-.98,7.32-1.47,11.14-1.47,4.2,0,7.93.88,11.18,2.64,3.9,2.11,6.12,4.92,7.04,6.1,7.58,9.82,4.7,23.93,4.23,26.21-.47,2.28-3.8,17.42-17.36,25.39-7.01,4.12-14.24,4.85-16.41,5.05-3.99.36-7.36.08-9.76-.27.03,5.3.21,9.7.39,12.9.3,5.53.87,12.83.87,12.83Zm-8.26,1.63,14.54-30.58c4.98-1.28,7.95-4.54,9.85-6.67,6.74-7.59,7.99-16.77,8.5-20.93,1.22-9.93-1.09-18.03-3.74-22.62-2.49-4.32-6.09-6.47-10.81-6.47-3.29,0-6.94,1.07-10.94,3.2v53.78c1.63.27,4.2.47,7.14-.29Z"/>
  <path class="cls-1" d="m448.24,101.79v-1.34l2-.53c1.78-.53,3-1.34,3.67-2.4s1-2.45,1-4.14v-41.77c0-1.96-.33-3.4-1-4.34s-1.89-1.58-3.67-1.94l-2-.53v-1.34l22.95-7.74,1.33,1.33,1.2,11.48v1.07c1.24-2.49,2.87-4.78,4.87-6.87,2-2.09,4.22-3.8,6.67-5.14,2.45-1.34,4.87-2,7.27-2,3.38,0,5.96.94,7.74,2.8,1.78,1.87,2.67,4.23,2.67,7.07,0,3.03-.87,5.36-2.6,7.01-1.73,1.65-3.8,2.47-6.21,2.47-3.74,0-7.03-1.87-9.88-5.61l-.27-.27c-.89-1.25-1.91-1.94-3.07-2.07-1.16-.13-2.22.42-3.2,1.67-.89.8-1.62,1.76-2.2,2.87-.58,1.11-1.13,2.38-1.67,3.8v37.23c0,3.56,1.56,5.78,4.67,6.67l4.27,1.2v1.34h-34.56Z"/>
  <path class="cls-1" d="m538.45,35.6c5.78,0,10.72,1.18,14.81,3.54,4.09,2.36,7.23,5.56,9.41,9.61,2.18,4.05,3.27,8.65,3.27,13.81,0,.98-.04,1.98-.13,3-.09,1.02-.27,1.93-.53,2.74h-39.77c.09,9.61,1.8,16.53,5.14,20.75,3.34,4.23,8.29,6.34,14.88,6.34,4.45,0,8.05-.71,10.81-2.13,2.76-1.42,5.34-3.51,7.74-6.27l1.34,1.2c-2.76,4.89-6.43,8.72-11.01,11.48-4.58,2.76-10.08,4.14-16.48,4.14s-11.92-1.36-16.81-4.07c-4.89-2.71-8.72-6.61-11.48-11.68-2.76-5.07-4.14-11.12-4.14-18.15s1.6-13.5,4.8-18.62c3.2-5.11,7.32-9.01,12.34-11.68,5.03-2.67,10.3-4,15.81-4Zm-.4,2.67c-2.58,0-4.78.78-6.61,2.34-1.82,1.56-3.25,4.32-4.27,8.27-1.02,3.96-1.58,9.54-1.67,16.75h22.82c.89-9.7.53-16.68-1.07-20.95-1.6-4.27-4.67-6.41-9.21-6.41Z"/>
  <path class="cls-1" d="m595.7,103.79c-4.36,0-8.27-.51-11.74-1.53-3.47-1.02-6.67-2.29-9.61-3.8l.13-15.88h1.34l4.54,8.01c1.96,3.56,4.12,6.2,6.47,7.94,2.36,1.73,5.36,2.6,9.01,2.6,4.27,0,7.72-.95,10.34-2.87,2.62-1.91,3.94-4.47,3.94-7.67,0-2.94-.93-5.34-2.8-7.21s-5.34-3.56-10.41-5.07l-5.6-1.73c-5.43-1.6-9.7-4.09-12.81-7.47-3.11-3.38-4.67-7.52-4.67-12.41,0-5.87,2.31-10.85,6.94-14.95,4.62-4.09,11.25-6.14,19.88-6.14,3.47,0,6.74.38,9.81,1.14,3.07.76,6.03,1.89,8.87,3.4l-.8,14.41h-1.33l-4.67-8.27c-1.69-2.94-3.36-5-5-6.2-1.65-1.2-4.12-1.8-7.41-1.8-3.02,0-5.87.85-8.54,2.54-2.67,1.69-4,4.09-4,7.21s1.13,5.43,3.4,7.21c2.27,1.78,5.63,3.43,10.08,4.94l6,1.73c6.41,1.96,10.99,4.65,13.75,8.07,2.76,3.43,4.14,7.54,4.14,12.34,0,6.49-2.56,11.7-7.67,15.61-5.12,3.91-12.3,5.87-21.55,5.87Z"/>
  <path class="cls-1" d="m649.48,103.79c-5.16,0-9.5-1.47-13.01-4.4-3.52-2.94-5.27-7.16-5.27-12.68,0-4.18,2.13-8.03,6.4-11.54,4.27-3.51,10.99-6.16,20.15-7.94,1.42-.27,3.02-.55,4.8-.87,1.78-.31,3.65-.64,5.61-1v-10.54c0-6.05-.73-10.3-2.2-12.75-1.47-2.45-3.76-3.67-6.87-3.67-2.13,0-3.83.69-5.07,2.07-1.25,1.38-2.05,3.76-2.4,7.14l-.27,1.47c-.18,3.83-1.11,6.63-2.8,8.41-1.69,1.78-3.78,2.67-6.27,2.67-2.31,0-4.23-.71-5.74-2.13-1.51-1.42-2.27-3.34-2.27-5.74,0-3.65,1.27-6.72,3.8-9.21,2.54-2.49,5.89-4.36,10.08-5.61,4.18-1.25,8.72-1.87,13.61-1.87,7.92,0,14.03,1.94,18.35,5.81,4.32,3.87,6.47,10.16,6.47,18.88v29.49c0,4,1.87,6,5.61,6h2.94l1.2,1.07c-1.69,2.14-3.54,3.78-5.54,4.94s-4.83,1.73-8.47,1.73c-3.92,0-7.01-.91-9.27-2.74-2.27-1.82-3.76-4.25-4.47-7.27-2.67,2.85-5.4,5.27-8.21,7.27-2.8,2-6.43,3-10.88,3Zm8.14-8.14c1.78,0,3.45-.42,5-1.27,1.56-.84,3.4-2.16,5.54-3.94v-22.42c-.89.18-1.78.36-2.67.53-.89.18-1.91.36-3.07.53-4.09,1.07-7.36,2.87-9.81,5.4-2.45,2.54-3.67,5.94-3.67,10.21,0,3.65.84,6.38,2.54,8.21,1.69,1.82,3.74,2.74,6.14,2.74Z"/>
  <path class="cls-1" d="m349.75,196.01c3.49,8.7,13.25,12.16,22.03,10.87,1.34-.2,2.07-1.89,1.75-3.08-.39-1.43-1.73-1.94-3.08-1.75-3.25.48-6.89,0-9.85-1.46-1.46-.72-2.64-1.52-3.76-2.64-.54-.54-.9-.95-1.24-1.46-.23-.34-.45-.7-.65-1.06-.09-.16-.17-.32-.25-.49-.02-.05-.24-.55-.13-.27-.5-1.25-1.67-2.13-3.08-1.75-1.19.33-2.25,1.81-1.75,3.08h0Z"/>
  <path class="cls-1" d="m376.49,206c4.38.34,8.94-.92,12.52-3.47,1.06-.76,1.67-2.22.9-3.42s-2.2-1.59-3.42-.9c-1.7.97-3.38,2.01-5.14,2.89-.16.08-.37.23-.55.26.02,0,.41-.15.13-.06-.13.04-.25.09-.38.13-.19.06-.38.12-.58.16-.04,0-.26.08-.29.06l.27-.04c-.1.01-.2.02-.3.02-.11,0-.65-.05-.24.02.43.07-.2-.06-.29-.08-.08-.02-.15-.05-.23-.08-.25-.07.23.09.23.1-.06-.09-.44-.28-.54-.32.05.02.33.33.21.14-.03-.05-.11-.12-.16-.16-.33-.31.3.37.04.02-.21-.27.2,0,.07.19.02-.02-.06-.18-.06-.22,0-.28.04.31.03.29-.02-.39,0,.16-.06.19.01,0,.07-.33.08-.3,0,.04-.24.43-.09.24.02-.03.12-.17.12-.2,0,.04-.33.35-.14.2.44-.34-.34.13.05-.06s-.47.2.06-.01c.24-.1-.26.03-.28.03.35-.02-.06.11-.2-.05.03.04.17.03.21.06.24.14-.27-.16-.26-.11,0,.03.16.09.19.11.19.19-.21-.21-.22-.17,0-.03.19.21.21.21-.08,0-.29-.48-.13-.15.03.06.07.14.11.19.15.19-.13-.23-.11-.26.01-.02.06.27.08.28.04.03-.12-.58-.05-.3.01.05-.03.18,0,.22-.03-.05.14-.51.03-.3s-.17.46-.25.67c-.61,1.52-.2,3.44,1.27,4.32,1.73,1.04,3.9.11,4.5-1.75l-4.91-.66c0,.55,0,1.1,0,1.64,0,1.31,1.15,2.56,2.5,2.5s2.5-1.1,2.5-2.5c0-.55,0-1.1,0-1.64,0-1.25-.95-2.29-2.17-2.46s-2.36.59-2.74,1.79l2.41-1.41,1.3,1.24c.04.12.12.63.01.7.07-.04.19-.53.22-.6.22-.53.33-1.09.33-1.67,0-1.26-.54-2.52-1.41-3.42-1.86-1.93-5.03-1.87-6.83.11s-1.72,5.01.28,6.82c1.84,1.67,4.43,2.02,6.75,1.2,2.45-.87,4.69-2.39,6.94-3.67l-2.52-4.32c-.8.57-1.64,1.07-2.52,1.5-.11.05-.88.43-.3.15-.17.08-.37.15-.55.21-.46.17-.92.32-1.4.45s-.95.24-1.43.33c-.19.04-.39.07-.58.1-.29.04-.26.04.08-.01-.13.02-.26.03-.39.04-.98.09-1.95.09-2.93.02-1.31-.1-2.56,1.22-2.5,2.5.06,1.44,1.1,2.39,2.5,2.5h0Z"/>
  <path class="cls-1" d="m387.94,197.87l-3.87,2.77c-.29.16-.53.37-.7.64-.22.24-.37.52-.45.85-.1.33-.12.66-.04,1,.02.33.11.64.3.93.34.53.86,1,1.49,1.15s1.39.13,1.93-.25l3.87-2.77c.29-.16.53-.37.7-.64.22-.24.37-.52.45-.85.1-.33.12-.66.04-1-.02-.33-.11-.64-.3-.93-.34-.53-.86-1-1.49-1.15s-1.39-.13-1.93.25h0Z"/>
  <path class="cls-1" d="m348.56,201.38c1.48,1.36,2.95,2.71,4.43,4.07s2.84,2.62,4.48,3.63,3.45,1.62,5.36,1.7c2.07.09,3.9-.61,5.5-1.86,1.06-.83.87-2.66,0-3.54-1.05-1.05-2.47-.83-3.54,0,.21-.16.03-.04-.09.03-.14.07-.28.16-.42.22.25-.11.08-.03-.08,0s-.31.08-.47.12c-.19.04-.32.03-.06.02-.16.01-.33.02-.49.02s-.33,0-.49-.01-.34-.03-.07,0c-.33-.05-.65-.13-.96-.22-.16-.05-.31-.1-.47-.16.25.09-.04-.01-.13-.06-.7-.33-1.36-.75-1.99-1.2-.36-.26.2.17-.15-.11-.14-.11-.29-.23-.43-.35-.28-.24-.56-.48-.84-.73-.58-.52-1.16-1.06-1.73-1.59-1.28-1.18-2.57-2.36-3.85-3.54-.99-.91-2.55-.98-3.54,0-.93.93-1,2.62,0,3.54h0Z"/>
</svg>