<?xml version="1.0" encoding="UTF-8"?>
<svg id="Capa_2" data-name="Capa 2" xmlns="http://www.w3.org/2000/svg" viewBox="0 0 225.31 226.06">
  <defs>
    <style>
      .cls-1 {
        fill: #e96324;
      }
    </style>
  </defs>
  <g id="Capa_6" data-name="Capa 6">
    <path class="cls-1" d="m1.95,226.06H.04s.2-26.31-.04-26.14c3.43-2.21,8.3-14.72,11.62-22.45,7.57-17.59,14.11-32.78,27.38-36.32,13.63-3.64,27.82,6.92,42.86,18.1,4.88,3.63,12.22,9.09,17.23,11.81.17-5.78-.92-15.06-1.64-21.22-2.17-18.46-4.22-35.9,5.64-45.76,9.86-9.86,27.3-7.81,45.76-5.64,6.16.72,15.43,1.81,21.22,1.64-2.73-5.02-8.18-12.35-11.81-17.23-11.18-15.04-21.74-29.24-18.1-42.86,3.54-13.26,18.73-19.8,36.32-27.38,7.72-3.32,20.77-9.34,23.13-12.63-.17.24,25.71.27,25.71.27v1.99c0,17.16-19.83,26.19-38.56,34.25-6.57,2.83-17.1,7.36-20.97,10.47,1.74,4.79,8.87,14.39,13.32,20.37,12.47,16.77,24.25,32.61,15.88,47.09-8.46,14.62-29.16,12.19-49.18,9.84-7.29-.86-18.97-2.23-23.94-1.4-.83,4.97.54,16.65,1.4,23.94,2.35,20.02,4.79,40.72-9.84,49.18-14.48,8.38-30.32-3.4-47.09-15.88-5.98-4.45-15.58-11.59-20.37-13.32-3.11,3.87-7.64,14.39-10.47,20.97-8.06,18.73-16.39,38.3-33.56,38.3Z"/>
  </g>
</svg>